<svg xmlns="http://www.w3.org/2000/svg" viewBox="0 0 220 60" width="220" height="60">
  <!-- Heart -->
  <path d="M28,18 C28,10 20,3 12,3 C4,3 -3,10 -3,18 C-3,28 6,37 28,50 C50,37 59,28 59,18 C59,10 52,3 44,3 C36,3 28,10 28,18 Z"
    fill="#E63329"/>
  <!-- Heartbeat line navy -->
  <polyline
    points="4,22 12,22 17,8 21,36 26,16 31,22 39,22"
    fill="none" stroke="#1A2B4A" stroke-width="2.5"
    stroke-linecap="round" stroke-linejoin="round"/>
  <!-- Swiss cross white -->
  <rect x="43" y="14" width="8" height="20" fill="white" rx="1"/>
  <rect x="37" y="20" width="20" height="8" fill="white" rx="1"/>
  <!-- Wordmark -->
  <text x="68" y="26"
    font-family="Georgia, 'Times New Roman', serif"
    font-size="18"
    font-weight="bold"
    fill="#1A2B4A">VitalChain</text>
  <text x="68" y="42"
    font-family="Georgia, 'Times New Roman', serif"
    font-size="9"
    fill="#E63329"
    letter-spacing="3">HEALTH SUISSE</text>
</svg>
